<?xml version="1.0" encoding="UTF-8" standalone="no"?>
<!-- Created with Inkscape (http://www.inkscape.org/) -->

<svg
   width="467.57547mm"
   height="90.718803mm"
   viewBox="0 0 467.57548 90.718806"
   version="1.1"
   id="svg1"
   xml:space="preserve"
   xmlns:xlink="http://www.w3.org/1999/xlink"
   xmlns="http://www.w3.org/2000/svg"
   xmlns:svg="http://www.w3.org/2000/svg"><defs
     id="defs1"><linearGradient
       id="linearGradient12-1"><stop
         style="stop-color:#ff02ed;stop-opacity:1;"
         offset="0"
         id="stop12" /><stop
         style="stop-color:#ff5301;stop-opacity:1;"
         offset="0.5"
         id="stop16" /><stop
         style="stop-color:#ffe200;stop-opacity:1;"
         offset="1"
         id="stop13" /></linearGradient><circle
       stroke="none"
       stroke-width="2"
       id="wtg"
       r="12"
       cx="0"
       cy="0" /><rect
       stroke="#111111"
       stroke-width="2"
       id="oss"
       width="21"
       height="21"
       fill="#7cfc00"
       x="0"
       y="0" /><linearGradient
       xlink:href="#linearGradient12-1"
       id="linearGradient13"
       x1="123.60323"
       y1="73.329376"
       x2="454.0658"
       y2="73.329376"
       gradientUnits="userSpaceOnUse"
       gradientTransform="matrix(1.1667335,0,0,1.271028,135.93638,66.58875)" /></defs><g
     id="layer1"
     transform="translate(-279.61778,-206.38445)"><path
       id="rect11"
       style="opacity:1;fill:url(#linearGradient13);stroke:#000000;stroke-width:0.1;stroke-dasharray:none;stroke-opacity:1"
       d="m 540.65351,129.78985 v 19.56314 H 540.53 c -1.97485,-3.41485 -5.13225,-5.12216 -9.47281,-5.12216 -4.3817,0 -7.88921,1.57373 -10.52235,4.72115 -2.63313,3.14742 -3.94963,7.33328 -3.94963,12.55841 0,4.87541 1.18291,8.73255 3.54862,11.57139 2.38627,2.81828 5.56455,4.22765 9.53482,4.22765 4.89599,0 8.51621,-2.03658 10.86135,-6.10971 h 0.12351 v 5.36918 h 5.06067 v -46.77905 z m -144.71933,0.58601 c -0.90514,0 -1.67636,0.31882 -2.31407,0.95653 -0.63771,0.61714 -0.95705,1.39879 -0.95705,2.34507 0,0.94628 0.31934,1.72794 0.95705,2.34508 0.63771,0.61714 1.40893,0.92604 2.31407,0.92604 0.92571,0 1.70736,-0.31882 2.34507,-0.95653 0.65828,-0.63772 0.98754,-1.40945 0.98754,-2.31459 0,-0.94628 -0.32926,-1.72793 -0.98754,-2.34507 -0.63771,-0.63771 -1.41936,-0.95653 -2.34507,-0.95653 z m 74.33448,0 c -0.90514,0 -1.67636,0.31882 -2.31407,0.95653 -0.63771,0.61714 -0.95653,1.39879 -0.95653,2.34507 0,0.94628 0.31882,1.72794 0.95653,2.34508 0.63771,0.61714 1.40893,0.92604 2.31407,0.92604 0.92571,0 1.70736,-0.31882 2.34507,-0.95653 0.65828,-0.63772 0.98754,-1.40945 0.98754,-2.31459 0,-0.94628 -0.32926,-1.72793 -0.98754,-2.34507 -0.63771,-0.63771 -1.41936,-0.95653 -2.34507,-0.95653 z m -163.88147,1.20354 c -6.62397,0 -11.8597,2.1185 -15.70654,6.3562 -3.84685,4.2377 -5.77019,9.9159 -5.77019,17.03359 0,6.62398 1.88213,12.00318 5.64669,16.13803 3.78513,4.13484 8.81525,6.20221 15.08951,6.20221 6.41826,0 11.54024,-2.09816 15.36651,-6.29471 3.82627,-4.19656 5.7397,-9.90503 5.7397,-17.12557 0,-6.64455 -1.87221,-12.02428 -5.6162,-16.13855 -3.72342,-4.11427 -8.63979,-6.1712 -14.74948,-6.1712 z m 97.94027,0.74052 12.95993,44.24898 h 6.01669 l 9.16482,-32.40009 c 0.41143,-1.44 0.67858,-2.92086 0.80201,-4.44314 h 0.12351 c 0.0823,1.62514 0.31919,3.12688 0.71004,4.50516 l 9.1028,32.33807 h 6.0787 l 12.49691,-44.24898 h -5.61568 l -9.04131,34.06614 c -0.47314,1.76913 -0.75072,3.18842 -0.83302,4.25814 h -0.12351 c -0.16457,-1.584 -0.41137,-2.96206 -0.74052,-4.13463 l -9.38031,-34.18965 h -4.96817 l -9.78183,33.94264 c -0.53485,1.87199 -0.85367,3.35337 -0.95653,4.44365 h -0.154 c -0.10286,-1.54285 -0.35019,-3.02423 -0.74104,-4.44365 l -9.41131,-33.94264 z m 152.31008,0 v 44.24898 h 5.18418 v -31.96807 c 0,-3.10627 -0.0824,-5.13242 -0.24701,-6.0787 h 0.185 c 0.37028,0.96685 0.84355,1.89252 1.41955,2.77709 l 22.77226,35.26968 h 6.35672 v -44.24898 h -5.18367 v 31.16554 c 0,3.06513 0.10279,5.2353 0.30851,6.51072 h -0.12351 c -0.26743,-0.53485 -0.86384,-1.52211 -1.78955,-2.9621 l -22.15575,-34.71416 z m -178.01445,3.30161 -5.06016,1.63556 v 7.71426 h -5.43119 v 4.31963 h 5.43119 v 18.69964 c 0,6.17141 2.76657,9.25731 8.30027,9.25731 1.95427,0 3.52803,-0.32926 4.72116,-0.98754 v -4.32014 c -0.92571,0.69943 -2.02619,1.04903 -3.30161,1.04903 -1.66628,0 -2.85962,-0.4524 -3.57962,-1.35754 -0.72,-0.90514 -1.08004,-2.41731 -1.08004,-4.53616 v -17.8046 h 7.96127 v -4.31963 h -7.96127 z m 264.35234,0 -5.06068,1.63556 v 7.71426 h -5.43067 v 4.31963 h 5.43067 v 18.69964 c 0,6.17141 2.76709,9.25731 8.30079,9.25731 1.95427,0 3.52803,-0.32926 4.72116,-0.98754 v -4.32014 c -0.92571,0.69943 -2.02619,1.04903 -3.30161,1.04903 -1.66628,0 -2.85963,-0.4524 -3.57963,-1.35754 -0.72,-0.90514 -1.08003,-2.41731 -1.08003,-4.53616 v -17.8046 h 7.96127 v -4.31963 h -7.96127 z m -336.95876,0.64802 c 4.77256,0 8.51646,1.5941 11.23187,4.78266 2.71542,3.18856 4.07314,7.7042 4.07314,13.54646 0,5.69827 -1.39895,10.13145 -4.19665,13.29944 -2.79771,3.16799 -6.62353,4.75165 -11.47837,4.75165 -4.54627,0 -8.23902,-1.65566 -11.07787,-4.96765 -2.81827,-3.33256 -4.22765,-7.72453 -4.22765,-13.17594 0,-5.45141 1.45059,-9.85382 4.35115,-13.20695 2.90056,-3.35313 6.67526,-5.02967 11.32438,-5.02967 z m 44.86599,7.96128 c -4.79313,0 -8.43422,2.09814 -10.92336,6.2947 h -0.12299 v -5.55418 h -5.06067 v 46.13103 h 5.06067 v -19.10012 h 0.12299 c 2.22171,3.53828 5.37962,5.30717 9.47332,5.30717 4.46398,0 7.98143,-1.58418 10.55285,-4.75217 2.57142,-3.18856 3.85712,-7.42608 3.85712,-12.71292 0,-4.75199 -1.14169,-8.53711 -3.42511,-11.35538 -2.28342,-2.83885 -5.46169,-4.25813 -9.53482,-4.25813 z m 147.65094,0 c -4.52569,0 -7.98156,1.99535 -10.36784,5.98619 h -0.12351 v -5.24567 h -5.06067 v 31.59755 h 5.06067 v -18.0206 c 0,-2.90056 0.82287,-5.29717 2.46858,-7.18974 1.66628,-1.91314 3.76444,-2.8696 6.29471,-2.8696 4.89599,0 7.34425,3.35308 7.34425,10.05934 v 18.0206 h 5.06068 v -19.31665 c 0,-4.21713 -0.91576,-7.43661 -2.74661,-9.65832 -1.83085,-2.24227 -4.47427,-3.3631 -7.93026,-3.3631 z m 117.10241,0 c -4.13485,0 -7.60115,1.55286 -10.39885,4.65914 -2.77714,3.0857 -4.16563,7.08685 -4.16563,12.0034 0,5.20455 1.27579,9.24692 3.82664,12.12691 2.55085,2.85942 6.05784,4.28915 10.52183,4.28915 4.56684,0 8.23926,-1.00812 11.01639,-3.02411 v -4.75165 c -2.98285,2.34513 -6.25399,3.51762 -9.81284,3.51762 -3.16799,0 -5.65697,-0.95645 -7.46725,-2.86959 -1.81028,-1.91313 -2.7568,-4.62858 -2.8391,-8.14628 h 22.30975 v -2.6541 c 0,-4.75199 -1.13126,-8.4651 -3.39411,-11.13937 -2.26285,-2.67428 -5.46199,-4.01112 -9.59683,-4.01112 z m -222.29392,0.74052 v 31.59755 h 5.06067 v -31.59755 z m 74.33448,0 v 31.59755 h 5.06067 v -31.59755 z m -118.05895,3.51761 c 2.77713,0 4.97859,0.99768 6.60373,2.9931 1.62514,1.99542 2.43758,4.75208 2.43758,8.26978 0,4.17598 -0.87452,7.43669 -2.62309,9.78183 -1.72799,2.34513 -4.12462,3.51762 -7.18975,3.51762 -2.61256,0 -4.77228,-0.90532 -6.4797,-2.7156 -1.68685,-1.83085 -2.53008,-4.05266 -2.53008,-6.66522 v -4.41265 c 0,-3.0857 0.89436,-5.6467 2.68407,-7.68326 1.78971,-2.05714 4.15553,-3.0856 7.09724,-3.0856 z m 182.0876,0 c 2.59199,0 4.73136,0.88446 6.41821,2.65359 1.68686,1.76914 2.53008,3.92937 2.53008,6.48022 v 4.65915 c 0,3.10627 -0.88446,5.6777 -2.65359,7.71426 -1.74857,2.03657 -4.03194,3.05511 -6.85022,3.05511 -2.85942,0 -5.14281,-1.04933 -6.85023,-3.14761 -1.68685,-2.11885 -2.5306,-4.99866 -2.5306,-8.63979 0,-3.99084 0.88496,-7.11797 2.6541,-9.38082 1.76914,-2.26285 4.19655,-3.39411 7.28225,-3.39411 z m 83.83829,0 c 2.46856,0 4.39191,0.81244 5.77019,2.43758 1.39885,1.62513 2.10899,3.89861 2.12959,6.81974 h -17.06408 c 0.39085,-2.75656 1.41932,-4.9888 3.0856,-6.69623 1.66628,-1.70742 3.69242,-2.56109 6.0787,-2.56109 z"
       transform="translate(96.206549,94.863661)" /><line
       x1="305.52756"
       y1="287.11298"
       x2="344.86554"
       y2="289.6702"
       id="line7-6-8-8-9-4-5"
       style="stroke:#dc143c;stroke-width:3.30776;stroke-dasharray:none" /><line
       x1="286.77957"
       y1="265.34232"
       x2="305.52756"
       y2="287.11298"
       id="line8-1-7-9-6-4-3"
       style="stroke:#dc143c;stroke-width:3.30776;stroke-dasharray:none" /><line
       x1="316.8399"
       y1="248.24149"
       x2="327.50623"
       y2="213.81755"
       id="line10-2-2-4-3-5-5"
       style="stroke:#dc143c;stroke-width:3.30776;stroke-dasharray:none" /><line
       x1="286.77957"
       y1="265.34232"
       x2="316.8399"
       y2="248.24149"
       id="line11-3-7-4-4-9-1"
       style="stroke:#dc143c;stroke-width:3.30776;stroke-dasharray:none" /><line
       x1="287.08075"
       y1="262.43399"
       x2="288.04315"
       y2="227.86325"
       id="line11-3-7-4-4-9-7-2"
       style="stroke:#dc143c;stroke-width:3.30776;stroke-dasharray:none" /><line
       x1="316.8399"
       y1="248.24149"
       x2="354.68716"
       y2="249.85794"
       id="line12-2-7-6-8-6-2"
       style="stroke:#dc143c;stroke-width:3.30776;stroke-dasharray:none" /><use
       href="#wtg"
       x="30"
       y="888"
       id="use19-1-0-6-3-87-2"
       transform="matrix(-0.20253562,-0.58537729,0.58537724,-0.20253562,-168.87339,487.08311)"
       style="fill:#ffcc00" /><use
       href="#wtg"
       x="141"
       y="624"
       id="use20-8-2-3-3-5-6"
       transform="matrix(-0.20253562,-0.58537729,0.58537724,-0.20253562,-31.19035,496.03337)"
       style="fill:#ffcc00" /><use
       href="#wtg"
       x="592"
       y="949"
       id="use21-9-8-7-7-81-4"
       transform="matrix(-0.20253562,-0.58537729,0.58537729,-0.20253562,-108.11572,752.56721)"
       style="fill:#ff00cc" /><use
       href="#wtg"
       x="592"
       y="949"
       id="use21-9-8-7-7-81-5-0"
       transform="matrix(-0.20253562,-0.58537729,0.58537729,-0.20253562,-147.33325,765.93519)"
       style="fill:#ff7f0e;fill-opacity:1" /><use
       href="#wtg"
       x="381"
       y="794"
       id="use22-2-6-8-4-25-70"
       transform="matrix(-0.20253562,-0.58537729,0.58537729,-0.20253562,-70.783585,632.08351)"
       style="fill:#ff00cc" /><use
       href="#wtg"
       x="280"
       y="1050"
       id="use23-7-0-8-3-7-34"
       transform="matrix(-0.20253562,-0.58537729,0.58537729,-0.20253562,-203.24899,626.42596)"
       style="fill:#ff00cc" /><use
       href="#oss"
       x="324.5"
       y="536.5"
       id="use24-9-2-2-8-4-00"
       transform="matrix(-0.00334681,-0.61941592,0.61941587,-0.00334682,-50.919753,474.67732)" /></g></svg>
